<?xml version="1.0" standalone="no"?>
<!DOCTYPE svg PUBLIC "-//W3C//DTD SVG 20010904//EN"
 "http://www.w3.org/TR/2001/REC-SVG-20010904/DTD/svg10.dtd">
<svg version="1.0" xmlns="http://www.w3.org/2000/svg"
 width="250.000000pt" height="50.000000pt" viewBox="0 0 1920.000000 439.000000"
 preserveAspectRatio="xMidYMid meet" stroke="white" stroke-width="16">

<g transform="translate(0.000000,439.000000) scale(0.100000,-0.100000)"
fill="#000000" stroke="white" stroke-width="2">
<path d="M2768 4226 c-61 -17 -111 -51 -149 -104 -40 -55 -49 -133 -25 -214 9
-31 16 -59 16 -62 0 -6 -19 -9 -185 -32 -116 -15 -228 -39 -329 -69 -26 -8
-53 -15 -58 -15 -6 0 -24 -6 -41 -14 -18 -7 -68 -26 -112 -42 -67 -23 -248
-106 -334 -153 l-23 -13 62 -63 c63 -63 75 -96 37 -103 -20 -4 -237 202 -237
224 0 33 142 148 277 225 24 13 43 29 43 34 0 6 -11 24 -24 40 l-24 30 -99
-34 c-208 -71 -313 -144 -530 -365 -148 -151 -167 -178 -235 -316 -53 -110
-94 -314 -66 -331 21 -14 138 -11 142 4 2 6 10 50 19 96 15 78 54 161 76 161
9 0 182 -154 329 -292 54 -51 82 -84 80 -96 -7 -38 -48 -17 -152 81 -58 53
-107 97 -110 97 -10 0 -7 -294 5 -450 29 -407 106 -722 262 -1064 63 -140 151
-296 166 -296 4 0 79 68 169 150 l162 151 115 -108 c63 -59 115 -110 115 -113
0 -11 -192 -184 -253 -229 -32 -23 -97 -76 -145 -117 -48 -42 -116 -96 -152
-122 -36 -25 -90 -64 -120 -87 -77 -59 -110 -79 -110 -68 0 18 101 127 347
375 l245 247 -44 47 -44 47 -130 -123 c-71 -67 -154 -144 -186 -170 -59 -50
-250 -248 -312 -323 -54 -66 -156 -300 -156 -357 0 -26 11 -25 106 9 190 70
282 120 394 216 116 100 351 315 436 400 28 27 87 82 131 122 76 68 82 71 97
54 9 -10 16 -22 16 -28 0 -11 -53 -61 -154 -148 -32 -27 -67 -63 -79 -79 l-21
-29 50 -44 c27 -25 69 -56 94 -71 25 -14 81 -50 124 -80 96 -64 350 -207 403
-227 21 -7 66 -27 101 -44 34 -17 69 -31 76 -31 8 0 46 16 85 35 39 19 73 35
76 35 26 0 282 143 404 226 39 27 84 56 99 64 41 23 158 108 173 126 11 14 3
25 -62 87 -41 40 -92 85 -112 100 -48 36 -70 71 -62 97 3 11 11 20 17 20 12 0
240 -199 273 -238 12 -15 71 -70 130 -122 59 -52 135 -122 169 -154 111 -109
227 -185 381 -251 38 -16 182 -65 193 -65 8 0 -10 95 -30 155 -12 33 -35 87
-52 119 -40 76 -213 275 -346 396 -58 52 -123 113 -145 134 -109 107 -188 176
-200 176 -17 0 -85 -63 -85 -80 0 -6 114 -126 254 -266 253 -253 334 -340 323
-350 -3 -3 -42 22 -87 55 -45 34 -85 61 -89 61 -8 0 -52 35 -256 200 -160 129
-335 289 -335 305 0 7 21 30 48 51 26 21 75 67 110 102 l62 64 72 -64 c40 -34
115 -103 167 -151 l95 -89 18 24 c19 25 138 227 138 235 0 3 6 19 14 36 100
223 175 458 212 662 43 241 63 452 64 653 0 133 -4 202 -10 202 -6 0 -58 -45
-116 -100 -103 -98 -129 -114 -140 -86 -11 28 34 79 181 207 27 24 84 77 127
117 42 39 83 72 91 72 30 0 87 -146 87 -225 l0 -41 68 -2 c95 -3 96 -2 83 100
-17 127 -61 255 -116 340 -67 102 -354 387 -465 460 -86 57 -268 136 -322 141
-23 1 -35 -5 -55 -30 l-24 -32 77 -48 c98 -61 256 -191 252 -207 -2 -6 -54
-61 -116 -121 -92 -89 -116 -107 -130 -99 -30 19 -24 34 39 99 34 36 60 67 58
69 -43 37 -382 185 -502 220 -120 35 -244 64 -297 70 -30 4 -84 11 -120 16
-36 5 -86 12 -112 15 l-47 6 19 50 c26 64 26 148 1 197 -56 108 -176 167 -283
138z m85 -415 c11 -131 11 -131 37 -131 46 0 214 -39 275 -63 192 -78 233
-104 371 -242 118 -118 135 -139 177 -225 26 -52 60 -128 75 -168 l29 -73 44
37 c24 20 98 88 165 150 66 63 134 124 151 137 16 12 69 60 117 107 48 47 89
87 92 89 6 6 154 -141 154 -153 0 -5 -30 -36 -67 -70 -38 -33 -111 -101 -163
-151 -52 -49 -133 -124 -180 -165 -47 -41 -114 -104 -150 -138 -104 -102 -93
-99 -194 -53 -47 22 -88 46 -90 53 -2 7 -12 49 -21 93 -18 83 -81 229 -131
302 -86 125 -235 248 -387 318 -69 32 -206 65 -268 65 l-29 0 0 -148 c0 -82
-3 -204 -7 -270 -5 -106 -8 -122 -23 -122 -23 0 -28 47 -36 323 l-7 217 -26 0
c-46 -1 -184 -29 -194 -39 -6 -6 -18 -11 -27 -11 -21 0 -144 -60 -197 -96 -65
-45 -202 -183 -241 -244 -74 -115 -114 -220 -128 -344 l-6 -53 -77 -35 c-124
-57 -105 -61 -233 53 -180 163 -288 260 -353 318 -95 86 -205 192 -205 200 0
3 33 40 74 80 l75 74 48 -44 c65 -59 378 -346 419 -384 38 -36 111 -95 117
-95 3 0 8 12 12 28 14 59 60 161 110 247 158 270 455 457 783 492 l52 5 0 57
c0 31 4 72 9 91 5 19 12 57 16 84 11 80 26 40 38 -103z m-309 -439 c18 -34 13
-43 -41 -70 -100 -51 -183 -124 -218 -191 -17 -34 -40 -39 -71 -17 -19 14 -19
15 0 48 32 55 93 123 148 165 50 39 144 93 160 93 4 0 14 -13 22 -28z m-329
-316 c23 -17 26 -83 5 -97 -38 -23 -90 1 -90 42 0 20 41 69 58 69 4 0 17 -6
27 -14z m730 -176 c158 -34 373 -98 516 -153 35 -13 94 -34 132 -46 97 -32
337 -148 337 -163 -3 -141 -47 -439 -69 -461 -8 -8 -21 179 -21 298 l0 63
-116 45 -115 46 -62 -14 c-121 -27 -336 -71 -447 -91 -46 -9 -88 -18 -92 -20
-4 -3 -8 -59 -8 -124 l0 -119 -47 -32 c-27 -18 -65 -47 -86 -66 l-37 -33 -63
47 c-34 27 -74 55 -87 64 -24 16 -25 22 -30 140 l-5 124 -110 23 c-60 12 -144
29 -185 37 -41 8 -127 25 -190 38 l-115 24 -114 -43 c-62 -24 -115 -45 -117
-47 -2 -2 -7 -69 -10 -148 -3 -79 -7 -160 -10 -179 l-6 -35 -14 40 c-20 57
-54 292 -54 369 l0 66 43 22 c168 88 466 200 727 272 52 15 111 31 130 37 19
5 68 16 109 24 41 9 77 18 80 21 3 3 15 3 26 -1 11 -3 61 -14 110 -25z m-865
-562 l0 -63 43 -20 c23 -10 91 -43 151 -72 59 -29 113 -53 119 -53 19 0 312
-151 325 -168 9 -12 12 -134 12 -528 0 -282 -3 -515 -7 -517 -10 -6 -125 69
-238 157 -281 218 -400 314 -475 385 -156 149 -140 124 -140 210 0 42 4 103 9
136 6 33 15 177 21 320 8 173 16 262 24 267 6 4 44 8 84 8 l72 0 0 -62z m1646
51 c3 -6 10 -73 15 -148 4 -75 15 -250 24 -390 l15 -255 -37 -39 c-63 -65
-323 -286 -443 -377 -63 -47 -130 -99 -149 -116 -52 -46 -201 -144 -217 -144
-12 0 -14 74 -14 464 0 254 3 491 6 525 l7 62 111 57 c61 31 136 67 166 80 30
14 124 58 208 98 l152 73 0 61 0 60 74 0 c44 0 78 -5 82 -11z m-2286 -479 c5
-8 18 -51 31 -95 29 -102 89 -246 135 -325 29 -50 33 -64 23 -76 -7 -8 -21
-14 -32 -12 -57 9 -239 483 -200 522 11 10 35 3 43 -14z m2813 -25 c-4 -101
-153 -458 -202 -485 -30 -16 -56 29 -32 56 41 44 142 291 166 404 11 54 24 72
48 68 19 -3 22 -9 20 -43z"/>
<path d="M2735 2715 c-27 -7 -95 -23 -150 -35 -55 -12 -125 -29 -155 -38 -53
-17 -54 -17 -20 -20 32 -2 85 -10 290 -44 41 -6 95 -12 120 -12 50 1 272 30
335 44 22 5 58 10 80 11 l40 1 -31 13 c-17 8 -84 25 -150 39 -65 15 -145 33
-176 41 -67 17 -114 17 -183 0z"/>
<path d="M2066 2062 c-8 -24 -26 -295 -26 -392 0 -75 0 -75 37 -105 21 -16 49
-37 64 -47 14 -9 94 -70 177 -137 83 -67 154 -121 158 -121 4 0 16 -8 26 -17
17 -15 20 -15 29 -3 5 9 8 138 6 304 l-2 288 -85 45 c-47 25 -110 59 -140 76
-30 16 -84 46 -120 65 -36 19 -74 41 -85 48 -26 18 -33 18 -39 -4z"/>
<path d="M3485 2032 c-44 -27 -142 -81 -218 -121 -76 -40 -140 -78 -142 -85
-2 -6 -6 -145 -8 -308 -3 -213 -1 -295 7 -291 27 16 218 162 291 223 44 36 99
78 121 93 79 53 84 63 74 142 -5 39 -12 133 -15 210 -7 149 -11 185 -23 185
-4 -1 -43 -22 -87 -48z"/>
<path d="M390 4113 c-70 -36 -110 -105 -110 -188 0 -69 10 -95 60 -149 31 -34
53 -47 99 -60 34 -10 71 -14 86 -10 23 6 35 -2 93 -59 l67 -66 88 85 c48 47
87 90 87 95 0 5 -29 31 -64 59 l-63 50 -5 70 c-6 80 -31 122 -100 168 -33 21
-55 27 -112 30 -62 3 -78 0 -126 -25z"/>
<path d="M5020 4113 c-45 -23 -59 -37 -82 -82 -20 -38 -28 -68 -28 -105 0 -56
-6 -65 -92 -129 -21 -15 -38 -31 -38 -35 0 -4 39 -47 86 -96 l87 -88 67 67
c56 56 72 67 92 62 31 -9 127 19 158 46 14 12 39 40 55 61 27 36 30 47 30 112
-1 61 -5 78 -28 113 -44 66 -97 95 -181 99 -62 3 -78 0 -126 -25z"/>
<path d="M842 3614 l-83 -86 54 -57 54 -56 94 88 94 89 -60 54 c-33 29 -62 54
-65 54 -3 0 -42 -39 -88 -86z"/>
<path d="M4651 3649 c-42 -40 -52 -54 -45 -68 11 -22 158 -161 170 -161 5 0
25 17 44 38 72 75 73 63 -21 158 -46 46 -86 84 -89 84 -3 -1 -29 -23 -59 -51z"/>
<path d="M15915 3530 c-285 -26 -544 -149 -750 -355 -293 -293 -405 -668 -329
-1102 98 -563 586 -953 1192 -953 233 0 641 95 880 205 l72 34 0 245 c0 135 5
267 11 294 16 76 60 114 175 152 99 33 110 45 102 101 l-3 24 -578 3 -577 2
-10 -25 c-6 -16 -6 -34 0 -50 9 -23 15 -25 67 -25 130 -1 254 -45 300 -107 43
-60 53 -122 53 -344 l0 -206 -43 -40 c-57 -52 -136 -81 -263 -95 -144 -17
-253 3 -384 68 -82 41 -109 62 -195 149 -147 148 -233 305 -291 532 -80 314
-37 743 98 984 69 121 176 227 288 284 98 50 177 67 330 72 305 10 525 -64
673 -227 56 -62 84 -111 138 -243 34 -85 64 -112 94 -87 13 11 15 54 15 298
l0 285 -87 -6 c-82 -6 -98 -4 -233 33 -303 83 -558 118 -745 100z"/>
<path d="M10705 3489 c-181 -5 -358 -12 -392 -15 l-63 -6 0 -42 0 -43 78 -6
c99 -9 174 -45 217 -105 l30 -44 0 -917 0 -918 -27 -36 c-33 -42 -97 -69 -211
-87 l-78 -13 3 -46 3 -46 585 0 585 0 3 46 3 45 -128 22 c-159 28 -210 51
-241 112 -22 44 -22 47 -20 425 l3 380 125 -3 c69 -1 134 -4 146 -7 26 -6 72
-71 218 -313 216 -357 337 -523 436 -596 105 -78 271 -127 492 -146 135 -12
168 -7 168 29 0 12 -22 27 -77 51 -85 37 -174 116 -249 220 -55 76 -537 840
-533 844 2 2 24 14 49 26 69 35 164 105 207 154 44 50 98 154 113 218 15 69
11 244 -8 318 -59 223 -263 409 -527 481 -71 20 -109 22 -330 24 -137 2 -398
-1 -580 -6z m631 -113 c168 -44 297 -190 340 -383 20 -93 15 -277 -11 -363
-67 -218 -225 -319 -487 -308 -84 3 -102 7 -114 23 -12 15 -14 108 -14 522 l0
504 23 9 c34 14 206 11 263 -4z"/>
<path d="M5490 3427 l0 -44 60 -16 c70 -20 133 -71 150 -122 15 -45 0 -448
-39 -1035 -17 -250 -35 -527 -40 -614 -9 -143 -13 -165 -38 -215 -24 -48 -36
-60 -83 -84 -36 -17 -79 -30 -123 -34 l-67 -6 0 -48 0 -49 415 0 415 0 0 48 0
48 -81 12 c-96 14 -173 52 -196 96 -24 46 -17 208 53 1289 3 54 10 97 15 95 5
-2 166 -350 358 -773 192 -424 355 -778 363 -788 11 -15 28 -19 90 -20 42 -1
81 3 87 8 5 6 170 359 366 785 197 426 363 781 370 789 16 17 16 15 56 -691
39 -709 39 -691 14 -718 -41 -45 -148 -80 -247 -80 l-39 0 3 -47 3 -48 548 -3
547 -2 0 48 0 47 -75 12 c-129 21 -223 78 -240 146 -3 12 -28 422 -54 912 -55
1007 -57 939 26 994 43 29 76 42 136 55 25 6 27 10 27 51 l0 45 -304 0 -305 0
-18 -23 c-10 -13 -180 -382 -378 -820 -356 -788 -377 -829 -406 -800 -6 6
-172 372 -370 814 -198 442 -368 810 -377 817 -12 9 -92 12 -319 12 l-303 0 0
-43z"/>
<path d="M9304 2699 c-91 -11 -141 -26 -229 -69 -156 -76 -251 -173 -335 -345
-73 -147 -94 -245 -94 -435 -1 -168 14 -241 71 -354 83 -163 245 -298 423
-350 211 -62 454 -6 687 160 70 50 183 152 183 165 0 11 -60 79 -71 79 -4 0
-38 -23 -74 -50 -154 -117 -307 -165 -445 -140 -246 44 -414 261 -428 551 -3
70 -1 113 7 127 l12 22 494 0 c562 0 515 -8 515 87 0 123 -114 339 -227 432
-129 106 -291 146 -489 120z m149 -180 c92 -25 187 -165 187 -275 0 -39 -3
-46 -26 -54 -14 -6 -140 -10 -285 -10 -248 0 -260 1 -280 21 -16 16 -19 28
-14 52 12 55 51 133 90 175 90 100 194 129 328 91z"/>
<path d="M13495 2700 c-171 -24 -358 -123 -486 -256 -80 -84 -121 -143 -164
-237 -45 -97 -59 -172 -58 -297 4 -349 223 -635 573 -748 347 -113 769 8 975
280 130 171 186 393 151 596 -53 306 -280 539 -620 637 -99 28 -269 40 -371
25z m223 -160 c136 -72 260 -262 319 -490 23 -91 27 -125 27 -255 1 -166 -13
-240 -65 -351 -80 -170 -232 -247 -394 -199 -205 59 -340 273 -391 617 -46
313 50 602 229 693 46 23 61 26 132 23 67 -4 90 -9 143 -38z"/>
<path d="M18046 2695 c-239 -46 -461 -206 -522 -377 -17 -49 -22 -144 -8 -157
9 -9 266 60 344 91 33 14 34 15 31 65 -4 80 15 132 68 184 110 109 288 78 364
-65 21 -38 22 -54 22 -240 l0 -199 -69 -38 c-70 -38 -92 -45 -341 -119 -237
-69 -374 -148 -432 -247 -38 -66 -44 -184 -13 -265 25 -68 86 -135 150 -165
104 -48 270 -58 386 -22 79 24 88 30 215 126 52 40 98 73 101 73 3 0 15 -26
27 -59 40 -111 94 -166 161 -165 57 2 127 41 285 160 141 105 163 131 164 192
1 35 -23 36 -69 3 -75 -54 -148 -50 -190 9 -19 27 -20 46 -20 432 0 221 -4
429 -10 461 -24 147 -136 260 -310 311 -80 24 -239 29 -334 11z m304 -1005 c0
-112 -4 -158 -14 -179 -22 -42 -82 -90 -156 -125 -57 -27 -76 -31 -150 -31
-66 0 -92 4 -116 19 -43 26 -64 66 -64 120 0 62 20 108 63 140 36 27 402 204
425 205 9 1 12 -35 12 -149z" />
</g>
</svg>
